<svg xmlns="http://www.w3.org/2000/svg" width="1920" height="1080"><path d="M-537,-514L384,-316L1149,-417Z" fill="#d3edbf" stroke="#d3edbf" stroke-width="1.51"/><path d="M-537,-514L1149,-417L1513,-445Z" fill="#b8e1c5" stroke="#b8e1c5" stroke-width="1.51"/><path d="M-537,-514L1513,-445L1990,-504Z" fill="#abd8cb" stroke="#abd8cb" stroke-width="1.51"/><path d="M2379,31L2207,142L2380,432Z" fill="#5f7997" stroke="#5f7997" stroke-width="1.51"/><path d="M2167,747L2181,1286L2444,865Z" fill="#234f97" stroke="#234f97" stroke-width="1.51"/><path d="M2380,432L2167,747L2444,865Z" fill="#2d639a" stroke="#2d639a" stroke-width="1.51"/><path d="M2379,31L2380,432L2444,865Z" fill="#3f6d94" stroke="#3f6d94" stroke-width="1.51"/><path d="M2444,865L2181,1286L2462,1310Z" fill="#1d3c88" stroke="#1d3c88" stroke-width="1.51"/><path d="M2181,1286L2374,1426L2462,1310Z" fill="#1d2e83" stroke="#1d2e83" stroke-width="1.51"/><path d="M-71,1517L-370,1557L556,1559Z" fill="#7d8290" stroke="#7d8290" stroke-width="1.51"/><path d="M2257,-271L2022,-9L2379,31Z" fill="#84889f" stroke="#84889f" stroke-width="1.51"/><path d="M2022,-9L2207,142L2379,31Z" fill="#7884a1" stroke="#7884a1" stroke-width="1.51"/><path d="M1933,657L2167,747L2380,432Z" fill="#386ea9" stroke="#386ea9" stroke-width="1.51"/><path d="M2132,184L1933,657L2380,432Z" fill="#4c77a9" stroke="#4c77a9" stroke-width="1.51"/><path d="M2207,142L2132,184L2380,432Z" fill="#5b7a9f" stroke="#5b7a9f" stroke-width="1.51"/><path d="M2181,1286L2151,1517L2374,1426Z" fill="#1e2e84" stroke="#1e2e84" stroke-width="1.51"/><path d="M1803,569L1933,657L2132,184Z" fill="#467fb0" stroke="#467fb0" stroke-width="1.51"/><path d="M1933,657L1849,1270L2167,747Z" fill="#2962aa" stroke="#2962aa" stroke-width="1.51"/><path d="M2167,747L1849,1270L2181,1286Z" fill="#264b9f" stroke="#264b9f" stroke-width="1.51"/><path d="M1871,-148L2022,-9L2257,-271Z" fill="#8e91a9" stroke="#8e91a9" stroke-width="1.51"/><path d="M1990,-504L1871,-148L2257,-271Z" fill="#9895aa" stroke="#9895aa" stroke-width="1.51"/><path d="M1831,154L1803,569L2132,184Z" fill="#5988ae" stroke="#5988ae" stroke-width="1.51"/><path d="M2022,-9L2132,184L2207,142Z" fill="#7585a8" stroke="#7585a8" stroke-width="1.51"/><path d="M1849,1270L2151,1517L2181,1286Z" fill="#263895" stroke="#263895" stroke-width="1.51"/><path d="M1686,696L1849,1270L1933,657Z" fill="#256daf" stroke="#256daf" stroke-width="1.51"/><path d="M1849,1270L1721,1570L2151,1517Z" fill="#213b8e" stroke="#213b8e" stroke-width="1.51"/><path d="M2022,-9L1831,154L2132,184Z" fill="#758cab" stroke="#758cab" stroke-width="1.51"/><path d="M1685,-258L1871,-148L1990,-504Z" fill="#99a1ae" stroke="#99a1ae" stroke-width="1.51"/><path d="M1871,-148L1831,154L2022,-9Z" fill="#8496ac" stroke="#8496ac" stroke-width="1.51"/><path d="M1513,-445L1685,-258L1990,-504Z" fill="#9ca9b8" stroke="#9ca9b8" stroke-width="1.51"/><path d="M1502,262L1803,569L1831,154Z" fill="#5493b4" stroke="#5493b4" stroke-width="1.51"/><path d="M1686,696L1344,824L1849,1270Z" fill="#2373b3" stroke="#2373b3" stroke-width="1.51"/><path d="M1803,569L1686,696L1933,657Z" fill="#337eb4" stroke="#337eb4" stroke-width="1.51"/><path d="M1496,1448L969,1568L1721,1570Z" fill="#215694" stroke="#215694" stroke-width="1.51"/><path d="M1344,824L1323,1314L1849,1270Z" fill="#2569ad" stroke="#2569ad" stroke-width="1.51"/><path d="M1496,1448L1721,1570L1849,1270Z" fill="#234897" stroke="#234897" stroke-width="1.51"/><path d="M1546,72L1831,154L1871,-148Z" fill="#809eb0" stroke="#809eb0" stroke-width="1.51"/><path d="M1685,-258L1546,72L1871,-148Z" fill="#8ca5b1" stroke="#8ca5b1" stroke-width="1.51"/><path d="M1323,1314L1496,1448L1849,1270Z" fill="#2956a4" stroke="#2956a4" stroke-width="1.51"/><path d="M1502,262L1391,507L1803,569Z" fill="#4598ba" stroke="#4598ba" stroke-width="1.51"/><path d="M1546,72L1502,262L1831,154Z" fill="#6da0b5" stroke="#6da0b5" stroke-width="1.51"/><path d="M1391,507L1686,696L1803,569Z" fill="#338db9" stroke="#338db9" stroke-width="1.51"/><path d="M1513,-445L1546,72L1685,-258Z" fill="#95b0b4" stroke="#95b0b4" stroke-width="1.51"/><path d="M1391,507L1344,824L1686,696Z" fill="#2c91bd" stroke="#2c91bd" stroke-width="1.51"/><path d="M1114,1169L1323,1314L1344,824Z" fill="#297ab4" stroke="#297ab4" stroke-width="1.51"/><path d="M1149,-417L1124,5L1513,-445Z" fill="#9fc7bc" stroke="#9fc7bc" stroke-width="1.51"/><path d="M1513,-445L1124,5L1546,72Z" fill="#90bcba" stroke="#90bcba" stroke-width="1.51"/><path d="M1124,5L1502,262L1546,72Z" fill="#75b3bb" stroke="#75b3bb" stroke-width="1.51"/><path d="M1323,1314L969,1568L1496,1448Z" fill="#2b61a0" stroke="#2b61a0" stroke-width="1.51"/><path d="M1124,5L1068,150L1502,262Z" fill="#74babd" stroke="#74babd" stroke-width="1.51"/><path d="M1068,150L1391,507L1502,262Z" fill="#57aebe" stroke="#57aebe" stroke-width="1.51"/><path d="M1208,802L1114,1169L1344,824Z" fill="#298bbb" stroke="#298bbb" stroke-width="1.51"/><path d="M1208,802L1344,824L1391,507Z" fill="#2899c1" stroke="#2899c1" stroke-width="1.51"/><path d="M993,531L1208,802L1391,507Z" fill="#35a5c3" stroke="#35a5c3" stroke-width="1.51"/><path d="M1068,150L993,531L1391,507Z" fill="#50b3c1" stroke="#50b3c1" stroke-width="1.51"/><path d="M915,-212L1124,5L1149,-417Z" fill="#9ecfbc" stroke="#9ecfbc" stroke-width="1.51"/><path d="M1114,1169L969,1568L1323,1314Z" fill="#376cab" stroke="#376cab" stroke-width="1.51"/><path d="M-537,-514L-119,-317L384,-316Z" fill="#ebf8b9" stroke="#ebf8b9" stroke-width="1.51"/><path d="M384,-316L895,-241L1149,-417Z" fill="#afdcbe" stroke="#afdcbe" stroke-width="1.51"/><path d="M890,996L1114,1169L1208,802Z" fill="#318dba" stroke="#318dba" stroke-width="1.51"/><path d="M993,531L890,996L1208,802Z" fill="#32a2c2" stroke="#32a2c2" stroke-width="1.51"/><path d="M735,227L993,531L1068,150Z" fill="#63c1c0" stroke="#63c1c0" stroke-width="1.51"/><path d="M757,1318L969,1568L1114,1169Z" fill="#4074ad" stroke="#4074ad" stroke-width="1.51"/><path d="M895,-241L915,-212L1149,-417Z" fill="#a5d5bd" stroke="#a5d5bd" stroke-width="1.51"/><path d="M915,-212L1068,150L1124,5Z" fill="#8fccbc" stroke="#8fccbc" stroke-width="1.51"/><path d="M890,996L734,1207L1114,1169Z" fill="#3e87b4" stroke="#3e87b4" stroke-width="1.51"/><path d="M734,1207L757,1318L1114,1169Z" fill="#457fb0" stroke="#457fb0" stroke-width="1.51"/><path d="M664,563L890,996L993,531Z" fill="#46aec2" stroke="#46aec2" stroke-width="1.51"/><path d="M915,-212L735,227L1068,150Z" fill="#8acebd" stroke="#8acebd" stroke-width="1.51"/><path d="M664,563L589,633L890,996Z" fill="#52b0c0" stroke="#52b0c0" stroke-width="1.51"/><path d="M735,227L664,563L993,531Z" fill="#5ebfc1" stroke="#5ebfc1" stroke-width="1.51"/><path d="M482,51L735,227L915,-212Z" fill="#9ad5ba" stroke="#9ad5ba" stroke-width="1.51"/><path d="M757,1318L556,1559L969,1568Z" fill="#48729b" stroke="#48729b" stroke-width="1.51"/><path d="M626,285L664,563L735,227Z" fill="#70c6be" stroke="#70c6be" stroke-width="1.51"/><path d="M589,633L441,870L890,996Z" fill="#55aabe" stroke="#55aabe" stroke-width="1.51"/><path d="M895,-241L482,51L915,-212Z" fill="#a5d9ba" stroke="#a5d9ba" stroke-width="1.51"/><path d="M384,-316L482,51L895,-241Z" fill="#b1dfb7" stroke="#b1dfb7" stroke-width="1.51"/><path d="M441,870L734,1207L890,996Z" fill="#5296b6" stroke="#5296b6" stroke-width="1.51"/><path d="M441,870L367,1055L734,1207Z" fill="#6299b4" stroke="#6299b4" stroke-width="1.51"/><path d="M482,51L626,285L735,227Z" fill="#88cfbb" stroke="#88cfbb" stroke-width="1.51"/><path d="M734,1207L556,1559L757,1318Z" fill="#557aa9" stroke="#557aa9" stroke-width="1.51"/><path d="M-119,-317L220,-268L384,-316Z" fill="#dcf2b5" stroke="#dcf2b5" stroke-width="1.51"/><path d="M367,1055L556,1559L734,1207Z" fill="#5f85ac" stroke="#5f85ac" stroke-width="1.51"/><path d="M626,285L339,465L664,563Z" fill="#72c7be" stroke="#72c7be" stroke-width="1.51"/><path d="M339,465L589,633L664,563Z" fill="#69c2bf" stroke="#69c2bf" stroke-width="1.51"/><path d="M367,1055L42,1383L556,1559Z" fill="#7787a9" stroke="#7787a9" stroke-width="1.51"/><path d="M482,51L339,465L626,285Z" fill="#89d0bb" stroke="#89d0bb" stroke-width="1.51"/><path d="M339,465L441,870L589,633Z" fill="#6fbdbe" stroke="#6fbdbe" stroke-width="1.51"/><path d="M185,42L339,465L482,51Z" fill="#a2d9b8" stroke="#a2d9b8" stroke-width="1.51"/><path d="M384,-316L220,-268L482,51Z" fill="#c5e7b5" stroke="#c5e7b5" stroke-width="1.51"/><path d="M42,1383L-71,1517L556,1559Z" fill="#7a8397" stroke="#7a8397" stroke-width="1.51"/><path d="M185,42L45,207L339,465Z" fill="#a8dcb7" stroke="#a8dcb7" stroke-width="1.51"/><path d="M127,1081L42,1383L367,1055Z" fill="#8499ad" stroke="#8499ad" stroke-width="1.51"/><path d="M339,465L176,1003L441,870Z" fill="#7ab9bd" stroke="#7ab9bd" stroke-width="1.51"/><path d="M220,-268L185,42L482,51Z" fill="#c2e6b5" stroke="#c2e6b5" stroke-width="1.51"/><path d="M176,1003L367,1055L441,870Z" fill="#76a6b5" stroke="#76a6b5" stroke-width="1.51"/><path d="M-101,478L176,1003L339,465Z" fill="#8fc8bc" stroke="#8fc8bc" stroke-width="1.51"/><path d="M176,1003L127,1081L367,1055Z" fill="#80a3b2" stroke="#80a3b2" stroke-width="1.51"/><path d="M45,207L-101,478L339,465Z" fill="#a1d8b9" stroke="#a1d8b9" stroke-width="1.51"/><path d="M-101,478L-269,704L176,1003Z" fill="#98c6bb" stroke="#98c6bb" stroke-width="1.51"/><path d="M-92,-50L185,42L220,-268Z" fill="#d2edb3" stroke="#d2edb3" stroke-width="1.51"/><path d="M-119,-317L-92,-50L220,-268Z" fill="#dff2b3" stroke="#dff2b3" stroke-width="1.51"/><path d="M-68,242L-101,478L45,207Z" fill="#aedeb7" stroke="#aedeb7" stroke-width="1.51"/><path d="M-269,704L127,1081L176,1003Z" fill="#8fb3b6" stroke="#8fb3b6" stroke-width="1.51"/><path d="M-92,-50L45,207L185,42Z" fill="#c6e8b5" stroke="#c6e8b5" stroke-width="1.51"/><path d="M-184,1226L42,1383L127,1081Z" fill="#8e97ab" stroke="#8e97ab" stroke-width="1.51"/><path d="M-269,704L-184,1226L127,1081Z" fill="#95adb3" stroke="#95adb3" stroke-width="1.51"/><path d="M-92,-50L-68,242L45,207Z" fill="#c2e6b5" stroke="#c2e6b5" stroke-width="1.51"/><path d="M-269,704L-467,868L-184,1226Z" fill="#9db7ba" stroke="#9db7ba" stroke-width="1.51"/><path d="M-184,1226L-71,1517L42,1383Z" fill="#8f8da4" stroke="#8f8da4" stroke-width="1.51"/><path d="M-467,868L-444,1175L-184,1226Z" fill="#9ba8b7" stroke="#9ba8b7" stroke-width="1.51"/><path d="M-119,-317L-373,-60L-92,-50Z" fill="#e4f4b2" stroke="#e4f4b2" stroke-width="1.51"/><path d="M-373,-60L-413,102L-92,-50Z" fill="#dcf2b7" stroke="#dcf2b7" stroke-width="1.51"/><path d="M-184,1226L-370,1557L-71,1517Z" fill="#918c9d" stroke="#918c9d" stroke-width="1.51"/><path d="M-92,-50L-413,102L-68,242Z" fill="#ceebb4" stroke="#ceebb4" stroke-width="1.51"/><path d="M-413,102L-101,478L-68,242Z" fill="#b9e2b6" stroke="#b9e2b6" stroke-width="1.51"/><path d="M-413,102L-582,470L-101,478Z" fill="#b7e0c0" stroke="#b7e0c0" stroke-width="1.51"/><path d="M-582,470L-269,704L-101,478Z" fill="#a7d7c1" stroke="#a7d7c1" stroke-width="1.51"/><path d="M-537,-514L-373,-60L-119,-317Z" fill="#f2faba" stroke="#f2faba" stroke-width="1.51"/><path d="M-444,1175L-370,1557L-184,1226Z" fill="#9993ad" stroke="#9993ad" stroke-width="1.51"/><path d="M-582,470L-467,868L-269,704Z" fill="#a5cfc6" stroke="#a5cfc6" stroke-width="1.51"/><path d="M-537,-514L-413,102L-373,-60Z" fill="#ebf7be" stroke="#ebf7be" stroke-width="1.51"/><path d="M-537,-514L-582,470L-413,102Z" fill="#dff3c3" stroke="#dff3c3" stroke-width="1.51"/><path d="M-467,868L-582,470L-444,1175Z" fill="#a2c3c8" stroke="#a2c3c8" stroke-width="1.51"/></svg>